# xmcd
#
# Track frame offsets:
# 150
# 22690
# 41142
# 53285
# 67798
# 81168
# 101003
# 115259
# 131365
#
# Disc length: 2078 seconds
#
#
# Revision: 1
# Processed by: cddbd v1.5.1PL0 Copyright (c) Steve Scherf et al.
# Submitted via: FreeRIP 2.942 
#
DISCID=62081c09
DTITLE=Nina Galindo y sigue la mata dando... - Brindis por un difunto
DYEAR=1991
DGENRE=Rock
TTITLE0=LLevate lejos tu blues
TTITLE1=En brazos del olvido
TTITLE2=Rock de los treintañeros
TTITLE3=¡Qué bonito hospital!
TTITLE4=Brindis por un difunto
TTITLE5=Mariposa negra
TTITLE6=Gancho al hígado
TTITLE7=Perro que ladra.... (Te regalo mi sombra)
TTITLE8=Mírame desaparecer
EXTD=ID3G: 0
EXTT0=
EXTT1=
EXTT2=
EXTT3=
EXTT4=
EXTT5=
EXTT6=
EXTT7=
EXTT8=
PLAYORDER=
